HIERARCHY
ROOT Hips
{
	OFFSET -0.001795 -0.223333 0.028219
	CHANNELS 6 Xposition Yposition Zposition Zrotation Yrotation Xrotation 
	JOINT LeftUpLeg
	{
		OFFSET 0.069520 -0.091406 -0.006815
		CHANNELS 3 Zrotation Yrotation Xrotation
		JOINT LeftLeg
		{
			OFFSET 0.034277 -0.375199 -0.004496
			CHANNELS 3 Zrotation Yrotation Xrotation
			JOINT LeftFoot
			{
				OFFSET -0.013596 -0.397961 -0.043693
				CHANNELS 3 Zrotation Yrotation Xrotation
				JOINT LeftToe
				{
					OFFSET 0.026358 -0.055791 0.119288
					CHANNELS 3 Zrotation Yrotation Xrotation
					End Site
					{
						OFFSET 0.000000 0.000000 0.000000
					}
				}
			}
		}
	}
	JOINT RightUpLeg
	{
		OFFSET -0.067670 -0.090522 -0.004320
		CHANNELS 3 Zrotation Yrotation Xrotation
		JOINT RightLeg
		{
			OFFSET -0.038290 -0.382569 -0.008850
			CHANNELS 3 Zrotation Yrotation Xrotation
			JOINT RightFoot
			{
				OFFSET 0.015774 -0.398415 -0.042312
				CHANNELS 3 Zrotation Yrotation Xrotation
				JOINT RightToe
				{
					OFFSET -0.025372 -0.048144 0.123348
					CHANNELS 3 Zrotation Yrotation Xrotation
					End Site
					{
						OFFSET 0.000000 0.000000 0.000000
					}
				}
			}
		}
	}
	JOINT Spine
	{
		OFFSET -0.002533 0.108963 -0.026696
		CHANNELS 3 Zrotation Yrotation Xrotation
		JOINT Spine1
		{
			OFFSET 0.005487 0.135180 0.001092
			CHANNELS 3 Zrotation Yrotation Xrotation
			JOINT Spine2
			{
				OFFSET 0.001457 0.052922 0.025425
				CHANNELS 3 Zrotation Yrotation Xrotation
				JOINT Neck
				{
					OFFSET -0.002778 0.213870 -0.042857
					CHANNELS 3 Zrotation Yrotation Xrotation
					JOINT Head
					{
						OFFSET 0.005152 0.064970 0.051349
						CHANNELS 3 Zrotation Yrotation Xrotation
						End Site
						{
							OFFSET 0.000000 0.000000 0.000000
						}
					}
				}
				JOINT LeftShoulder
				{
					OFFSET 0.078845 0.121749 -0.034090
					CHANNELS 3 Zrotation Yrotation Xrotation
					JOINT LeftArm
					{
						OFFSET 0.090977 0.030469 -0.008868
						CHANNELS 3 Zrotation Yrotation Xrotation
						JOINT LeftForeArm
						{
							OFFSET 0.259612 -0.012772 -0.027456
							CHANNELS 3 Zrotation Yrotation Xrotation
							JOINT LeftHand
							{
								OFFSET 0.249234 0.008986 -0.001171
								CHANNELS 3 Zrotation Yrotation Xrotation
								End Site
								{
									OFFSET 0.000000 0.000000 0.000000
								}
							}
						}
					}
				}
				JOINT RightShoulder
				{
					OFFSET -0.081759 0.118833 -0.038615
					CHANNELS 3 Zrotation Yrotation Xrotation
					JOINT RightArm
					{
						OFFSET -0.096012 0.032551 -0.009143
						CHANNELS 3 Zrotation Yrotation Xrotation
						JOINT RightForeArm
						{
							OFFSET -0.253742 -0.013329 -0.021401
							CHANNELS 3 Zrotation Yrotation Xrotation
							JOINT RightHand
							{
								OFFSET -0.255298 0.007772 -0.005559
								CHANNELS 3 Zrotation Yrotation Xrotation
								End Site
								{
									OFFSET 0.000000 0.000000 0.000000
								}
							}
						}
					}
				}
			}
		}
	}
}
MOTION
Frames: 10
Frame Time: 0.050000
0.010820 0.932654 -0.061019 -0.497127 -1.121370 -2.205111 5.276769 0.101590 2.628347 -0.831133 0.185761 -3.437050 3.766241 9.802711 7.739956 0.000000 0.000000 0.000000 -7.358524 0.219317 -2.033184 3.829244 -0.370958 4.260578 -4.540570 -13.272219 9.755008 0.000000 0.000000 0.000000 -3.120216 0.031654 -2.065939 0.528901 -0.362085 3.609277 2.750738 -2.366820 3.959131 1.793304 -1.398076 -1.339836 0.000000 0.000000 0.000000 -15.511909 -10.422366 4.516084 -59.915318 -32.510806 10.299750 159.019769 -64.699142 -137.916987 0.000000 0.000000 0.000000 14.724109 21.128493 8.317129 46.101039 40.873834 11.492413 162.316891 75.998347 160.055578 0.000000 0.000000 0.000000 
0.010882 0.932935 -0.061582 -0.447207 -0.911195 -2.163753 5.442122 0.098006 2.731898 -1.219594 0.226866 -3.846272 3.608105 9.582729 7.943238 0.000000 0.000000 0.000000 -7.119813 0.207613 -1.819869 3.315123 -0.305761 3.802758 -4.619797 -13.434902 9.920825 0.000000 0.000000 0.000000 -3.379340 0.027574 -2.095654 0.813917 -0.506774 3.396574 2.647258 -2.768353 4.209857 1.690068 -1.303277 -1.670399 0.000000 0.000000 0.000000 -15.282371 -10.679757 4.702698 -59.732654 -34.171345 11.221942 156.810122 -63.465218 -133.490298 0.000000 0.000000 0.000000 14.650929 21.543521 8.461002 45.876021 41.515542 11.662650 172.885041 77.078127 173.664249 0.000000 0.000000 0.000000 
0.011005 0.933182 -0.062093 -0.325984 -0.921541 -2.050556 5.336512 0.103284 2.808340 -1.290587 0.242224 -4.271458 3.564037 9.560442 8.200219 0.000000 0.000000 0.000000 -7.146445 0.209449 -1.802270 3.111599 -0.281655 3.477543 -4.604513 -13.424727 10.032036 0.000000 0.000000 0.000000 -3.547602 0.025662 -2.053079 0.849448 -0.531242 3.584506 2.753107 -2.799171 3.941739 1.764784 -1.331975 -2.045048 0.000000 0.000000 0.000000 -15.202111 -11.404111 5.076868 -59.787604 -35.529442 12.075863 156.777881 -61.919888 -132.188882 0.000000 0.000000 0.000000 14.493218 21.555881 8.431292 46.930925 42.476275 12.445121 -177.240626 77.630928 -173.948297 0.000000 0.000000 0.000000 
0.011188 0.933253 -0.062564 -0.243139 -0.880105 -2.011775 5.408464 0.107927 2.979797 -1.603961 0.274814 -4.729061 3.491198 9.477968 8.386695 0.000000 0.000000 0.000000 -7.234072 0.204476 -1.651942 3.085323 -0.283679 3.084588 -4.603082 -13.433454 10.122519 0.000000 0.000000 0.000000 -3.811135 0.022476 -2.139480 0.926571 -0.576468 3.715943 2.822032 -3.056647 4.076557 1.514167 -1.134555 -2.189663 0.000000 0.000000 0.000000 -14.983787 -11.661197 5.251551 -60.098231 -36.900498 13.003261 156.194807 -61.054069 -130.380827 0.000000 0.000000 0.000000 14.293855 21.874436 8.517662 47.572829 43.392332 13.045939 -168.404147 77.799152 -163.068653 0.000000 0.000000 0.000000 
0.011427 0.933161 -0.063073 -0.089404 -0.804638 -1.981043 5.237235 0.116011 3.069596 -1.627477 0.282505 -5.041119 3.431142 9.402452 8.495153 0.000000 0.000000 0.000000 -7.377916 0.199606 -1.502786 3.013460 -0.279828 2.717857 -4.627690 -13.479145 10.148601 0.000000 0.000000 0.000000 -3.931535 0.020879 -2.180025 0.996814 -0.622259 3.942483 2.646731 -3.077625 3.913911 1.812599 -1.352507 -2.360071 0.000000 0.000000 0.000000 -15.055301 -11.998337 5.414978 -60.640602 -37.738196 13.700197 157.439718 -60.461340 -131.847054 0.000000 0.000000 0.000000 14.677190 21.998945 8.621888 48.220811 44.004623 13.580124 -165.202215 77.790632 -159.079218 0.000000 0.000000 0.000000 
0.011627 0.932848 -0.063616 -0.016298 -0.760017 -2.181650 5.134615 0.134776 3.347771 -1.603860 0.284775 -5.224548 3.398005 9.342841 8.459793 0.000000 0.000000 0.000000 -7.542768 0.181634 -1.072689 3.136157 -0.301665 2.290033 -4.619968 -13.457720 10.117868 0.000000 0.000000 0.000000 -4.020127 0.014952 -1.962132 0.993815 -0.620961 3.925658 2.561257 -2.905136 4.041925 1.866985 -1.326362 -3.256957 0.000000 0.000000 0.000000 -14.576424 -12.237182 5.452538 -61.307634 -39.016606 14.715350 156.654050 -60.631706 -130.907823 0.000000 0.000000 0.000000 14.653034 22.080588 8.713571 49.247956 44.570943 14.208802 -163.555338 77.664443 -156.847495 0.000000 0.000000 0.000000 
0.011744 0.932905 -0.064212 -0.078713 -0.350079 -2.329029 5.174452 0.135311 3.484803 -1.535699 0.281868 -5.381426 3.189742 9.012709 8.455992 0.000000 0.000000 0.000000 -7.418304 0.153597 -0.611971 3.045215 -0.299822 1.831319 -4.762707 -13.722432 10.304264 0.000000 0.000000 0.000000 -4.102936 0.009068 -1.781879 1.100030 -0.681597 3.890661 2.451176 -2.929607 4.004029 2.109476 -1.445067 -4.042675 0.000000 0.000000 0.000000 -14.096758 -12.398349 5.445761 -61.851804 -40.029042 15.557366 155.670625 -60.536756 -129.482771 0.000000 0.000000 0.000000 14.830305 22.217835 8.851231 49.893140 44.455267 14.406154 -167.144020 76.850301 -160.887414 0.000000 0.000000 0.000000 
0.011795 0.932818 -0.064811 -0.055453 -0.079722 -2.428869 5.345152 0.132358 3.622695 -1.875289 0.305788 -5.588659 3.031836 8.765790 8.482068 0.000000 0.000000 0.000000 -7.423972 0.136129 -0.321574 3.016439 -0.302603 1.531758 -4.862332 -13.902328 10.384704 0.000000 0.000000 0.000000 -4.153237 0.004643 -1.537756 1.120768 -0.698486 3.930999 2.400526 -2.756262 3.809766 2.411206 -1.620190 -4.495276 0.000000 0.000000 0.000000 -13.982645 -12.737256 5.533309 -61.984851 -40.693047 16.031809 154.770177 -60.914227 -128.710742 0.000000 0.000000 0.000000 14.845790 22.070238 8.850094 50.552489 44.567292 14.729850 -169.835832 76.448236 -164.006916 0.000000 0.000000 0.000000 
0.011856 0.932575 -0.065431 -0.131637 0.174230 -2.425400 5.491942 0.121621 3.604409 -1.979786 0.312911 -5.718850 2.916847 8.571004 8.420709 0.000000 0.000000 0.000000 -7.349402 0.120807 -0.059753 3.040737 -0.313305 1.072262 -4.957102 -14.072404 10.479174 0.000000 0.000000 0.000000 -4.127684 0.004930 -1.684946 0.892489 -0.584635 4.002627 2.614671 -2.904719 3.707290 2.142948 -1.376807 -5.039135 0.000000 0.000000 0.000000 -13.723044 -12.594399 5.453067 -62.386687 -40.846001 16.298592 153.857993 -61.553853 -127.880863 0.000000 0.000000 0.000000 14.379309 22.092784 8.797269 51.732637 44.685993 15.222366 -174.131228 76.017658 -169.452538 0.000000 0.000000 0.000000 
0.012018 0.932143 -0.066130 -0.222371 0.251520 -2.575369 5.551952 0.123178 3.679010 -1.918287 0.307955 -5.665461 2.909032 8.518462 8.237147 0.000000 0.000000 0.000000 -7.330363 0.109675 0.109744 3.166232 -0.329694 1.008674 -4.984762 -14.112807 10.421416 0.000000 0.000000 0.000000 -4.150722 0.001484 -1.545963 0.804097 -0.539999 4.017040 2.807407 -2.821854 3.641875 2.218691 -1.413993 -5.225028 0.000000 0.000000 0.000000 -13.692020 -12.475309 5.372989 -62.847631 -40.604556 16.307885 153.890183 -62.110402 -128.480058 0.000000 0.000000 0.000000 13.742872 21.851411 8.629224 52.898336 45.038495 15.833547 -175.910655 75.938503 -171.705354 0.000000 0.000000 0.000000 
